<?xml version="1.0" encoding="UTF-8"?>
<svg version="1.1" xmlns="http://www.w3.org/2000/svg" width="200" height="197">
<path d="M0 0 C0.65477325 0.00086546 1.30954651 0.00173092 1.98416138 0.0026226 C4.18349506 0.0068176 6.38272546 0.01834962 8.58203125 0.0300293 C10.1714669 0.0350862 11.76090388 0.03973865 13.3503418 0.04402161 C16.8270014 0.05423259 20.30363214 0.06764318 23.78027344 0.08282471 C29.60220725 0.1070188 35.42411847 0.11424051 41.24609375 0.12133789 C50.72008571 0.13466747 60.1936934 0.17510962 69.66749573 0.23635674 C75.11969929 0.27096239 80.57160669 0.29579585 86.02392578 0.29980469 C91.4149316 0.30409817 96.80532307 0.33256322 102.19613647 0.37767982 C104.21809307 0.39053301 106.24012327 0.39500649 108.26211548 0.39040184 C122.01285371 0.36626815 134.1897155 1.04471493 144.7109375 11.0847168 C151.20702078 18.8770023 153.68449034 28.47652653 153.71337891 38.44995117 C153.72844734 39.659618 153.72844734 39.659618 153.74382019 40.89372253 C153.77464553 43.55764138 153.79173596 46.2214571 153.80859375 48.88549805 C153.82737145 50.77747376 153.84694934 52.66944169 153.86727905 54.56140137 C153.91863622 59.56377216 153.95812838 64.56617194 153.99542236 69.56866455 C154.03463821 74.50638581 154.08648924 79.44397266 154.13671875 84.3815918 C154.2235173 93.1108311 154.28788122 101.84003909 154.33766556 110.56956482 C154.37127585 116.23506671 154.42345629 121.89998663 154.49141121 127.56517792 C154.53166903 131.14085546 154.55927154 134.71655816 154.5839653 138.29237366 C154.59806248 139.95139435 154.61737018 141.61038076 154.64244461 143.26927185 C154.85251598 157.49525093 153.44438317 170.04816464 143.61328125 181.1081543 C131.59576134 192.51002257 115.75377869 194.35334148 99.95703125 194.54174805 C98.8187085 194.56406494 97.68038574 194.58638184 96.50756836 194.609375 C89.51574078 194.59021647 85.43910299 194.14881978 80.39453125 189.10424805 C80.27140115 186.69044062 80.20842133 184.30086211 80.18359375 181.88549805 C80.15548844 180.38027952 80.12682382 178.87507136 80.09765625 177.36987305 C80.05666325 174.99813536 80.0197819 172.62658345 79.99316406 170.25463867 C79.90968762 157.87690904 79.90968762 157.87690904 76.39453125 146.10424805 C75.80671875 144.58831055 75.80671875 144.58831055 75.20703125 143.04174805 C74.80484375 142.08268555 74.80484375 142.08268555 74.39453125 141.10424805 C75.50570312 140.87350586 76.616875 140.64276367 77.76171875 140.4050293 C90.34233675 137.68856657 102.46727825 134.57487013 110.01953125 123.22924805 C117.1596572 111.51570809 118.33758931 96.46937955 115.26953125 83.22924805 C113.87146791 78.60749497 111.57881298 75.54750672 108.55859375 71.8503418 C107.39453125 70.10424805 107.39453125 70.10424805 107.51953125 67.35424805 C107.80828125 66.28174805 108.09703125 65.20924805 108.39453125 64.10424805 C108.70036504 57.35679 108.42085126 50.77532814 107.39453125 44.10424805 C100.4795156 45.41249425 94.79102229 47.25981466 88.70703125 50.85424805 C82.939036 54.13449385 79.69964638 54.71979356 73.39453125 53.10424805 C68.10573861 52.19704639 62.99297978 51.91219036 57.64453125 51.91674805 C56.8546582 51.91610352 56.06478516 51.91545898 55.25097656 51.91479492 C49.1200658 51.96996058 43.38534396 52.81358822 37.39453125 54.10424805 C31.73628441 55.02804345 28.92905645 52.66704565 24.33984375 49.70581055 C19.04254656 46.82531738 13.22056417 45.53137427 7.39453125 44.10424805 C6.57966297 47.81436803 6.35556325 51.26159241 6.47265625 55.0378418 C6.4984375 55.93438477 6.52421875 56.83092773 6.55078125 57.75463867 C6.61316991 59.60940151 6.69124544 61.46370448 6.78515625 63.31713867 C6.91438415 68.94259062 6.38535216 72.25633349 2.65649414 76.57202148 C-3.56116948 84.12126832 -2.28657847 95.96862958 -1.60546875 105.10424805 C-0.38076927 114.83564388 3.39485959 123.45057443 10.65234375 130.20581055 C19.40624596 136.8204955 29.73796347 139.31243577 40.39453125 141.10424805 C34.79734155 155.27531469 34.79734155 155.27531469 30.64453125 157.72924805 C22.92196984 158.62031282 16.94853428 158.83923753 10.39453125 154.10424805 C8.16373386 151.93132512 6.27371 149.58305079 4.39453125 147.10424805 C0.4449835 142.04928751 -1.89925408 139.55528383 -8.35546875 138.47924805 C-9.42796875 138.35549805 -10.50046875 138.23174805 -11.60546875 138.10424805 C-10.58453125 139.06331055 -10.58453125 139.06331055 -9.54296875 140.04174805 C-4.73718834 144.87483403 -0.37429357 150.15654226 2.51953125 156.35424805 C4.56277165 160.71895733 7.15841425 163.87331888 11.4453125 166.2331543 C15.69522495 167.48842645 19.74184729 167.27566002 24.14453125 167.16674805 C25.86840899 167.1324736 27.59237481 167.10229701 29.31640625 167.0769043 C30.0753418 167.05893799 30.83427734 167.04097168 31.61621094 167.02246094 C33.39453125 167.10424805 33.39453125 167.10424805 34.39453125 168.10424805 C34.67311156 171.1787616 34.62635373 174.26861435 34.64453125 177.35424805 C34.66515625 178.21405273 34.68578125 179.07385742 34.70703125 179.9597168 C34.75940043 188.45661675 34.75940043 188.45661675 31.39453125 192.10424805 C25.17112708 194.68882504 19.35443834 194.28564612 12.72875977 194.04760742 C10.73058795 193.98004455 8.73142282 193.94429871 6.73242188 193.90893555 C-7.02012845 193.46951307 -18.66463899 189.63429169 -28.29296875 179.47924805 C-37.12765143 168.77489996 -39.90684675 157.49417755 -39.89599609 144.00952148 C-39.90271332 142.8069722 -39.90943054 141.60442291 -39.91635132 140.36543274 C-39.93204689 137.0821158 -39.93870363 133.79895106 -39.93998289 130.51560116 C-39.94140949 128.45894997 -39.94568873 126.4023249 -39.95097733 124.34568024 C-39.96945494 117.15532258 -39.97765099 109.96503882 -39.97607422 102.7746582 C-39.97487418 96.09731808 -39.9959551 89.42030189 -40.02756155 82.74304366 C-40.05381251 76.98989667 -40.06443781 71.23685488 -40.0631634 65.48364854 C-40.06265625 62.056587 -40.06820096 58.62981348 -40.0895195 55.20281219 C-40.10921118 51.37378916 -40.10332759 47.54559029 -40.09130859 43.71655273 C-40.10254761 42.59825577 -40.11378662 41.4799588 -40.12536621 40.32777405 C-40.02872214 28.15334794 -36.1226401 18.95851446 -27.79296875 10.19799805 C-19.95315993 2.73753482 -10.66812613 -0.03706518 0 0 Z " fill="#F6F6F6" transform="translate(42.60546875,1.895751953125)"/>
</svg>
